<svg width="1232" height="162" viewBox="0 0 1232 162" fill="none" xmlns="http://www.w3.org/2000/svg">
<path d="M369.922 30.6919C349.921 21.34 330.089 23.5504 313.282 38.5984C305.551 45.4848 298.24 53.0513 291.013 60.5328C278.492 47.6102 266.055 34.6026 253.197 22.1051C222.356 -7.56578 172.692 -7.31073 142.103 22.5302C129.33 35.0277 116.893 47.9503 104.371 60.7879C97.9847 54.1565 91.5981 47.6102 84.9593 41.404C69.2448 26.8661 50.589 24.0605 31.4291 32.4772C11.1766 41.404 0.840349 58.1523 0 82.6372C1.26052 102.021 10.1682 118.344 29.2442 127.696C48.9083 137.388 67.8162 134.753 84.119 120.385C91.1779 114.179 97.7326 107.377 104.203 100.576C116.304 112.988 128.321 125.571 140.674 137.813C156.557 153.541 175.801 161.533 198.07 161.193C219.667 161.363 238.491 153.881 253.869 138.748C266.475 126.421 278.66 113.668 290.929 101.001C297.652 108.057 304.374 115.114 311.601 121.575C328.661 136.708 348.157 140.449 369.249 130.842C390.342 121.32 399.586 103.636 401.687 81.787C400.258 58.0673 390.426 40.2988 369.922 30.6919ZM83.8668 83.4874C77.9004 89.3536 72.4381 95.8148 66.0514 101.341C57.5639 108.822 47.7318 110.098 37.4796 105.167C27.5635 100.321 22.9415 91.734 22.2693 81.702C22.6894 68.8645 28.1517 60.1077 38.6561 55.5168C48.6562 51.1809 58.4043 52.6262 66.5557 60.1927C72.5221 65.6338 78.0684 71.8401 83.7828 77.5362C85.9677 79.5766 86.3039 81.1919 83.8668 83.4874ZM270.508 83.4874C258.659 95.3898 247.231 107.717 235.298 119.45C224.961 129.567 212.356 134.583 197.986 134.413C183.112 134.668 170.255 129.312 159.666 118.854C148.07 107.292 136.893 95.3898 125.38 83.8275C122.943 81.447 123.027 80.0017 125.296 77.7062C137.145 65.8889 148.658 53.5614 160.675 41.9141C181.095 21.9351 214.205 21.7651 234.794 41.659C246.979 53.3914 258.491 65.8889 270.424 77.9613C272.525 80.0867 272.777 81.2769 270.508 83.4874ZM358.157 105.167C347.82 110.098 337.988 108.822 329.585 101.341C323.198 95.8148 317.736 89.3536 311.685 83.4874C309.333 81.1919 309.669 79.5766 311.854 77.5362C317.568 71.8401 323.114 65.6338 329.081 60.1927C337.232 52.6262 346.98 51.1809 356.98 55.5168C367.485 60.1077 372.947 68.8645 373.367 81.702C372.695 91.734 368.073 100.321 358.157 105.167Z" fill="black"/>
<g clip-path="url(#clip0_2_27)">
<path d="M554.934 130.603H524.853L501.694 87.6833H493.575V130.603H467.753V18.4973H507.284C519.529 18.4973 529.246 21.2052 536.3 26.4855C544.419 32.5782 548.412 41.108 548.412 52.0749C548.412 58.7091 547.081 64.3956 544.552 69.2698C541.89 74.144 539.228 77.5288 536.3 79.5597C533.372 81.5906 530.31 83.2153 526.983 84.2985L554.934 130.603ZM516.867 41.6496C514.338 39.7541 509.946 38.8063 503.69 38.8063H493.441V67.5097H503.69C509.813 67.5097 514.338 66.4265 517 64.3956C520.727 61.6878 522.591 57.8968 522.591 53.0226C522.457 48.1484 520.594 44.4928 516.867 41.6496Z" fill="black"/>
<path d="M637.322 96.7528H581.287C581.819 102.304 583.949 106.501 587.543 109.209C591.269 112.052 595.795 113.406 601.385 113.406C609.77 113.406 617.623 110.834 625.077 105.824L635.193 119.364L633.729 120.717C632.664 121.53 631.732 122.342 630.8 122.884C630.002 123.425 628.671 124.238 627.074 125.321C625.476 126.404 623.746 127.216 621.75 127.893C619.886 128.57 617.757 129.383 615.361 130.06C612.965 130.737 610.303 131.414 607.242 131.82C604.18 132.226 600.986 132.361 597.658 132.361C585.147 132.361 575.031 128.706 567.311 121.259C559.591 113.812 555.731 103.522 555.731 90.6601C555.731 77.9332 559.724 67.7787 567.844 60.332C575.963 52.8854 586.079 48.959 598.191 48.959C609.904 48.959 619.354 52.6146 626.674 59.7904C633.995 66.9663 637.589 76.4438 637.589 88.0877L637.322 96.7528ZM613.897 81.995C613.764 77.9332 612.299 74.1421 609.504 70.8927C606.709 67.6433 602.849 65.8831 597.791 65.8831C592.867 65.8831 589.007 67.5079 586.079 70.7573C583.15 74.0067 581.686 77.7978 581.42 81.995H613.897Z" fill="black"/>
<path d="M716.388 122.751L715.856 123.022C715.59 123.292 715.19 123.699 714.924 123.969C714.658 124.24 714.126 124.646 713.46 125.053C712.795 125.594 712.129 126 711.464 126.407L708.935 127.76C707.87 128.302 706.805 128.708 705.74 129.114C704.675 129.521 703.344 129.927 702.013 130.333C700.549 130.739 699.085 131.145 697.488 131.416C695.891 131.687 694.16 131.958 692.297 132.093C690.434 132.228 688.437 132.364 686.441 132.364C674.994 132.364 665.278 128.573 657.158 121.126C649.039 113.68 644.913 103.525 644.913 90.7981C644.913 78.0711 649.039 67.9166 657.291 60.3346C665.544 52.7525 675.393 49.0969 686.707 49.0969C692.696 49.0969 698.154 49.7739 702.945 51.2632C707.87 52.6172 711.197 54.1065 713.194 55.4604L715.856 57.6267L710.266 77.2587C704.409 72.3846 697.621 69.9475 690.034 69.9475C684.444 69.9475 679.919 71.843 676.192 75.4986C672.465 79.1542 670.602 84.1638 670.602 90.2565C670.602 96.4846 672.465 101.494 676.059 105.285C679.652 109.076 684.444 110.836 690.434 110.836C693.894 110.836 697.355 110.159 700.682 108.941C704.01 107.587 706.539 106.368 708.136 105.014L710.399 103.119L716.388 122.751Z" fill="black"/>
<path d="M778.277 74.4129H777.213C774.817 73.059 771.755 72.5174 767.895 72.5174C762.838 72.5174 758.978 74.4129 756.049 78.3393C753.387 81.8596 752.056 87.5461 752.056 95.1281V130.737H726.501V50.4483H752.056L751.923 61.8214H752.19C756.582 53.2916 763.104 48.959 771.622 48.959C773.219 48.959 774.684 49.0944 776.015 49.2298C777.346 49.5006 778.277 49.636 778.81 49.9067L779.608 50.4483L778.277 74.4129Z" fill="black"/>
<path d="M856.277 120.988C848.024 128.57 837.643 132.226 824.998 132.226C812.22 132.226 801.705 128.435 793.586 120.988C785.334 113.406 781.341 103.387 781.341 90.6601C781.341 77.9332 785.467 67.9141 793.719 60.332C801.971 52.75 812.486 48.959 825.131 48.959C837.776 48.959 848.158 52.75 856.41 60.332C864.662 67.9141 868.655 78.0686 868.655 90.6601C868.655 103.252 864.529 113.542 856.277 120.988ZM838.042 75.3607C834.847 71.4343 830.455 69.5388 824.998 69.5388C819.408 69.5388 815.149 71.4343 811.954 75.3607C808.76 79.2871 807.162 84.2967 807.162 90.254C807.162 96.3467 808.76 101.356 811.954 105.147C815.149 109.074 819.541 110.969 824.998 110.969C830.455 110.969 834.714 109.074 838.042 105.147C841.236 101.221 842.967 96.2113 842.967 90.254C842.834 84.1613 841.236 79.2871 838.042 75.3607Z" fill="black"/>
<path d="M1001.36 50.45L975.534 130.467H951.443L936.137 81.455L920.697 130.467H896.606L870.784 50.45H896.606L910.448 101.629L925.622 50.45H946.519L961.692 101.629L975.534 50.45H1001.36V50.45Z" fill="black"/>
<path d="M1090.8 130.603H1066.58L1066.71 120.042L1066.18 120.178C1060.32 128.301 1051.67 132.363 1040.36 132.363C1029.17 132.363 1020.26 128.437 1013.34 120.448C1006.55 112.596 1003.09 102.577 1003.09 90.5266C1003.09 78.4766 1006.55 68.5928 1013.34 60.74C1020.12 52.8872 1029.17 48.9608 1040.36 48.9608C1046.74 48.9608 1052.07 50.1793 1056.19 52.481C1060.45 54.9181 1063.38 57.3552 1065.24 60.0631V18.4973H1090.8V130.603ZM1060.99 75.2271C1057.66 71.4361 1053.13 69.4052 1047.68 69.4052C1042.22 69.4052 1037.69 71.3007 1034.23 75.2271C1030.77 79.0181 1029.17 84.0277 1029.17 90.2558C1029.17 96.4839 1030.9 101.493 1034.23 105.284C1037.69 109.075 1042.09 111.106 1047.68 111.106C1053.27 111.106 1057.66 109.211 1060.99 105.284C1064.31 101.493 1066.04 96.4839 1066.04 90.2558C1066.04 84.1631 1064.31 79.1535 1060.99 75.2271Z" fill="black"/>
<path d="M1134.59 130.603H1109.03V18.4973H1134.59V130.603Z" fill="black"/>
<path d="M1231.49 50.45L1196.35 138.185C1193.16 146.038 1189.69 151.724 1185.83 155.515C1182.11 159.306 1177.05 161.202 1170.79 161.202C1166.8 161.202 1163.07 160.931 1159.35 160.254C1155.62 159.577 1153.09 158.9 1151.49 158.358L1148.97 157.411L1154.02 138.185C1157.75 139.539 1160.95 140.351 1163.47 140.351C1164.81 140.351 1165.74 140.351 1166.4 140.216C1167.07 140.08 1167.87 139.674 1168.8 138.862C1169.73 138.049 1170.53 136.831 1171.19 135.206L1174.12 128.166L1142.98 50.5853H1169.6L1187.43 102.035L1205.13 50.5853H1231.49V50.45Z" fill="black"/>
</g>
<defs>
<clipPath id="clip0_2_27">
<rect width="763.734" height="142.705" fill="white" transform="translate(467.753 18.4973)"/>
</clipPath>
</defs>
</svg>
