<svg width="1232" height="162" viewBox="0 0 1232 162" fill="none" xmlns="http://www.w3.org/2000/svg">
<path d="M369.922 31.4887C349.921 22.1369 330.089 24.3473 313.282 39.3953C305.551 46.2817 298.24 53.8482 291.013 61.3297C278.492 48.4071 266.055 35.3995 253.197 22.902C222.356 -6.76891 172.692 -6.51385 142.103 23.3271C129.33 35.8246 116.893 48.7472 104.371 61.5847C97.9847 54.9534 91.5981 48.4071 84.9593 42.2009C69.2448 27.663 50.589 24.8574 31.4291 33.2741C11.1766 42.2009 0.840349 58.9492 0 83.4341C1.26052 102.818 10.1682 119.141 29.2442 128.493C48.9083 138.185 67.8162 135.549 84.119 121.182C91.1779 114.975 97.7326 108.174 104.203 101.373C116.304 113.785 128.321 126.368 140.674 138.61C156.557 154.338 175.801 162.33 198.07 161.99C219.667 162.16 238.491 154.678 253.869 139.545C266.475 127.218 278.66 114.465 290.929 101.798C297.652 108.854 304.374 115.911 311.601 122.372C328.661 137.505 348.157 141.246 369.249 131.639C390.342 122.117 399.586 104.433 401.687 82.5839C400.258 58.8642 390.426 41.0956 369.922 31.4887ZM83.8668 84.2843C77.9004 90.1504 72.4381 96.6117 66.0514 102.138C57.5639 109.619 47.7318 110.895 37.4796 105.964C27.5635 101.118 22.9415 92.5309 22.2693 82.4989C22.6894 69.6613 28.1517 60.9046 38.6561 56.3137C48.6562 51.9778 58.4043 53.4231 66.5557 60.9896C72.5221 66.4307 78.0684 72.6369 83.7828 78.3331C85.9677 80.3735 86.3039 81.9888 83.8668 84.2843ZM270.508 84.2843C258.659 96.1866 247.231 108.514 235.298 120.246C224.961 130.363 212.356 135.379 197.986 135.209C183.112 135.464 170.255 130.108 159.666 119.651C148.07 108.089 136.893 96.1866 125.38 84.6243C122.943 82.2439 123.027 80.7986 125.296 78.5031C137.145 66.6858 148.658 54.3583 160.675 42.711C181.095 22.732 214.205 22.5619 234.794 42.4559C246.979 54.1883 258.491 66.6858 270.424 78.7582C272.525 80.8836 272.777 82.0738 270.508 84.2843ZM358.157 105.964C347.82 110.895 337.988 109.619 329.585 102.138C323.198 96.6117 317.736 90.1504 311.685 84.2843C309.333 81.9888 309.669 80.3735 311.854 78.3331C317.568 72.6369 323.114 66.4307 329.081 60.9896C337.232 53.4231 346.98 51.9778 356.98 56.3137C367.485 60.9046 372.947 69.6613 373.367 82.4989C372.695 92.5309 368.073 101.118 358.157 105.964Z" fill="white"/>
<g clip-path="url(#clip0_2_40)">
<path d="M554.934 131.4H524.853L501.694 88.4802H493.575V131.4H467.753V19.2942H507.284C519.529 19.2942 529.246 22.0021 536.3 27.2824C544.419 33.3751 548.412 41.9049 548.412 52.8717C548.412 59.506 547.081 65.1925 544.552 70.0667C541.89 74.9408 539.228 78.3257 536.3 80.3566C533.372 82.3875 530.31 84.0122 526.983 85.0953L554.934 131.4ZM516.867 42.4464C514.338 40.5509 509.946 39.6032 503.69 39.6032H493.441V68.3066H503.69C509.813 68.3066 514.338 67.2234 517 65.1925C520.727 62.4847 522.591 58.6936 522.591 53.8195C522.457 48.9453 520.594 45.2897 516.867 42.4464Z" fill="white"/>
<path d="M637.322 97.5497H581.287C581.819 103.101 583.949 107.298 587.543 110.006C591.269 112.849 595.795 114.203 601.385 114.203C609.77 114.203 617.623 111.631 625.077 106.621L635.193 120.16L633.729 121.514C632.664 122.327 631.732 123.139 630.8 123.681C630.002 124.222 628.671 125.035 627.074 126.118C625.476 127.201 623.746 128.013 621.75 128.69C619.886 129.367 617.757 130.179 615.361 130.856C612.965 131.533 610.303 132.21 607.242 132.617C604.18 133.023 600.986 133.158 597.658 133.158C585.147 133.158 575.031 129.503 567.311 122.056C559.591 114.609 555.731 104.319 555.731 91.457C555.731 78.73 559.724 68.5755 567.844 61.1289C575.963 53.6823 586.079 49.7559 598.191 49.7559C609.904 49.7559 619.354 53.4115 626.674 60.5873C633.995 67.7632 637.589 77.2407 637.589 88.8845L637.322 97.5497ZM613.897 82.7918C613.764 78.73 612.299 74.939 609.504 71.6896C606.709 68.4401 602.849 66.68 597.791 66.68C592.867 66.68 589.007 68.3047 586.079 71.5542C583.15 74.8036 581.686 78.5946 581.42 82.7918H613.897Z" fill="white"/>
<path d="M716.388 123.548L715.856 123.819C715.59 124.089 715.19 124.496 714.924 124.766C714.658 125.037 714.126 125.443 713.46 125.849C712.795 126.391 712.129 126.797 711.464 127.203L708.935 128.557C707.87 129.099 706.805 129.505 705.74 129.911C704.675 130.317 703.344 130.724 702.013 131.13C700.549 131.536 699.085 131.942 697.488 132.213C695.891 132.484 694.16 132.755 692.297 132.89C690.434 133.025 688.437 133.161 686.441 133.161C674.994 133.161 665.278 129.37 657.158 121.923C649.039 114.476 644.913 104.322 644.913 91.595C644.913 78.868 649.039 68.7135 657.291 61.1314C665.544 53.5494 675.393 49.8938 686.707 49.8938C692.696 49.8938 698.154 50.5708 702.945 52.0601C707.87 53.414 711.197 54.9034 713.194 56.2573L715.856 58.4236L710.266 78.0556C704.409 73.1815 697.621 70.7444 690.034 70.7444C684.444 70.7444 679.919 72.6399 676.192 76.2955C672.465 79.9511 670.602 84.9607 670.602 91.0534C670.602 97.2815 672.465 102.291 676.059 106.082C679.652 109.873 684.444 111.633 690.434 111.633C693.894 111.633 697.355 110.956 700.682 109.738C704.01 108.384 706.539 107.165 708.136 105.811L710.399 103.916L716.388 123.548Z" fill="white"/>
<path d="M778.277 75.2098H777.213C774.817 73.8559 771.755 73.3143 767.895 73.3143C762.838 73.3143 758.978 75.2098 756.049 79.1362C753.387 82.6564 752.056 88.343 752.056 95.925V131.533H726.501V51.2452H752.056L751.923 62.6182H752.19C756.582 54.0884 763.104 49.7559 771.622 49.7559C773.219 49.7559 774.684 49.8913 776.015 50.0266C777.346 50.2974 778.277 50.4328 778.81 50.7036L779.608 51.2452L778.277 75.2098Z" fill="white"/>
<path d="M856.277 121.785C848.024 129.367 837.643 133.023 824.998 133.023C812.22 133.023 801.705 129.232 793.586 121.785C785.334 114.203 781.341 104.184 781.341 91.457C781.341 78.73 785.467 68.7109 793.719 61.1289C801.971 53.5469 812.486 49.7559 825.131 49.7559C837.776 49.7559 848.158 53.5469 856.41 61.1289C864.662 68.7109 868.655 78.8654 868.655 91.457C868.655 104.049 864.529 114.339 856.277 121.785ZM838.042 76.1576C834.847 72.2312 830.455 70.3357 824.998 70.3357C819.408 70.3357 815.149 72.2312 811.954 76.1576C808.76 80.084 807.162 85.0935 807.162 91.0508C807.162 97.1435 808.76 102.153 811.954 105.944C815.149 109.871 819.541 111.766 824.998 111.766C830.455 111.766 834.714 109.871 838.042 105.944C841.236 102.018 842.967 97.0082 842.967 91.0508C842.834 84.9581 841.236 80.084 838.042 76.1576Z" fill="white"/>
<path d="M1001.36 51.2468L975.534 131.264H951.443L936.137 82.2519L920.697 131.264H896.606L870.784 51.2468H896.606L910.448 102.426L925.622 51.2468H946.519L961.692 102.426L975.534 51.2468H1001.36V51.2468Z" fill="white"/>
<path d="M1090.8 131.4H1066.58L1066.71 120.839L1066.18 120.975C1060.32 129.098 1051.67 133.16 1040.36 133.16C1029.17 133.16 1020.26 129.234 1013.34 121.245C1006.55 113.393 1003.09 103.373 1003.09 91.3234C1003.09 79.2734 1006.55 69.3897 1013.34 61.5369C1020.12 53.6841 1029.17 49.7577 1040.36 49.7577C1046.74 49.7577 1052.07 50.9762 1056.19 53.2779C1060.45 55.715 1063.38 58.1521 1065.24 60.8599V19.2942H1090.8V131.4ZM1060.99 76.024C1057.66 72.233 1053.13 70.2021 1047.68 70.2021C1042.22 70.2021 1037.69 72.0976 1034.23 76.024C1030.77 79.815 1029.17 84.8246 1029.17 91.0526C1029.17 97.2807 1030.9 102.29 1034.23 106.081C1037.69 109.872 1042.09 111.903 1047.68 111.903C1053.27 111.903 1057.66 110.008 1060.99 106.081C1064.31 102.29 1066.04 97.2807 1066.04 91.0526C1066.04 84.9599 1064.31 79.9504 1060.99 76.024Z" fill="white"/>
<path d="M1134.59 131.4H1109.03V19.2942H1134.59V131.4Z" fill="white"/>
<path d="M1231.49 51.2468L1196.35 138.982C1193.16 146.835 1189.69 152.521 1185.83 156.312C1182.11 160.103 1177.05 161.999 1170.79 161.999C1166.8 161.999 1163.07 161.728 1159.35 161.051C1155.62 160.374 1153.09 159.697 1151.49 159.155L1148.97 158.208L1154.02 138.982C1157.75 140.336 1160.95 141.148 1163.47 141.148C1164.81 141.148 1165.74 141.148 1166.4 141.013C1167.07 140.877 1167.87 140.471 1168.8 139.659C1169.73 138.846 1170.53 137.628 1171.19 136.003L1174.12 128.963L1142.98 51.3822H1169.6L1187.43 102.832L1205.13 51.3822H1231.49V51.2468Z" fill="white"/>
</g>
<defs>
<clipPath id="clip0_2_40">
<rect width="763.734" height="142.705" fill="white" transform="translate(467.753 19.2942)"/>
</clipPath>
</defs>
</svg>
